<?xml version="1.0" encoding="utf-8"?>
<!-- Generator: Adobe Illustrator 23.0.2, SVG Export Plug-In . SVG Version: 6.00 Build 0)  -->
<svg version="1.1" id="Layer_1" xmlns="http://www.w3.org/2000/svg" xmlns:xlink="http://www.w3.org/1999/xlink" x="0px" y="0px"
	 viewBox="0 0 1920 1080" style="enable-background:new 0 0 1920 1080;" xml:space="preserve">
<style type="text/css">
	.st0{fill:#00364A;}
	.st1{fill:#004D61;}
	.st2{fill:#00ABAD;}
	.st3{fill:#006073;}
	.st4{fill:#00858C;}
	.st5{fill:#62CBC6;}
	.st6{display:none;fill:none;stroke:#FFFF00;stroke-miterlimit:10;}
</style>
<g>
	<path class="st0" d="M1919.8,957.4c0,38.3,0.2,76.7,0.2,115c0,6.6,0,3.6,0,7.6c-2,0-12,0.1-14,0.1c-630.6,0-1275.4-0.4-1906-0.1
		c0-11,0-75,0-95c0,0,28.7-11.3,43.3-15.4c92.7-26.3,187.1-44,283.2-50.2c98-6.3,194.6,2.6,289.4,31.6
		c67,20.5,136.2,32.6,206.5,34.7c44.4,1.3,88.6-5.1,132.8-9.9c81.5-8.9,160.7-29.5,240.5-47.2c68.3-15.2,136.2-32.7,206.1-39.2
		c32.6-3,65.2,2.5,97.6,6.7c45.3,6,88.8,19.2,132.4,32.1c48.1,14.2,96.5,26.4,146.6,31.6c37.5,3.9,74.4,0.2,111.5-2.9
		C1899.8,956.1,1909.9,952,1919.8,957.4z"/>
	<path class="st1" d="M1919.4,958.4c-47.3,6.8-94.4,11.2-142.6,7c-73.3-6.5-141.6-31.9-211.9-49.9c-37.9-9.7-76.6-14.7-115.5-18.9
		c-63.2-6.8-122.9,10.5-183.4,22.6c-88.1,17.7-174.8,42.4-263.6,56.4c-43,6.8-86.7,10.1-130.1,14.3c-43.1,4.2-85.4-0.6-127.6-4.8
		c-35.7-3.6-70.8-13.6-105.8-21.9c-42-9.9-83.6-21.9-125.7-31.1c-21.2-4.6-43.2-6.5-65-7.2c-35.7-1.1-71.5-1.2-107.2-0.1
		c-48.2,1.5-96,8.1-143.6,16.2C135.2,951.7,73.9,965.8,13.5,984c-4.3,1.3-9,1.4-13.5,2.1c0-40.9,0-81.8,0-122.6
		c5.6-5.1,12.2-4.1,18.9-3.4c45.7,5,91.5,7.3,137.5,8.2c73.9,1.3,145.3-10.9,215.8-31.3c66.8-19.3,134-36.3,203.3-44.5
		c85-10,168.1-2,250,21.6c27.5,7.9,54.2,18,80.8,28.5c37.4,14.8,76.7,20.3,116.8,22.3c118,5.7,230-21.2,340.5-59.2
		c50.8-17.5,103.7-26,157.5-30.3c92.9-7.4,178.8,15.7,262.7,52.7c35.9,15.9,74.1,26.2,112.8,33.5c7.9,1.5,16.4,2,22.8,8
		C1919.4,899.2,1919.4,928.8,1919.4,958.4z"/>
	<path class="st2" d="M1919.4,566c0,34.8,0,69.5,0,104.3c-10.2,7.8-21.5,4.8-32.4,3c-34.9-5.8-68.9-15.5-101.9-27.5
		c-87.7-32-177-31.5-267.4-16.7c-29.8,4.9-58.7,13.5-88.3,19.1c-68.3,13-136.2,12.9-203.1-7.5c-67.5-20.6-134.8-18.6-202.6-2.1
		c-35.2,8.5-70.8,15.6-106.7,21c-50.9,7.7-100.7,1.1-150.6-8.6C710.7,640,656,625.1,600.9,612c-68.2-16.1-134.7-11.3-200.7,10.2
		c-34,11.1-67.3,24.2-101.1,35.8c-41.4,14.2-84.1,20.3-127.6,23.9c-27,2.2-54,1.3-81,4.9c-27,3.6-53.9-2.9-81-3
		c-3.7,0-6.8-1.9-9.6-4.3c0-31.7,0-63.4,0-95.1c4.9-6.5,12.2-9.2,19.4-11.7c58.1-19.8,117.5-26.1,178.1-15.9
		c34.3,5.8,68.6,11.2,103.3,12.4c25.5,0.9,50.9-3.1,75.8-8.9c56.3-13.2,110.8-32.2,166-49.1c108.8-33.4,218-34.1,328.3-8.7
		c82.6,19,165.3,37.4,249.7,47.8c83.7,10.3,165.9,8.2,246-21.6c32.2-12,65.8-18.9,100-21.8c28.9-2.5,56.9,3.4,84.5,11.5
		c21.1,6.2,41.9,13.2,62.5,20.9c55.2,20.8,113,26.1,171.1,31.5c38.8,3.6,76.3-0.9,114.2-6.9C1905.9,562.8,1913.1,560.5,1919.4,566z"
		/>
	<path class="st3" d="M1919.4,869.5c-33.1-3.1-64.8-11.9-96.2-22c-52.3-16.8-101-43.8-154.9-55.5c-26.6-5.8-53.6-10.2-81.2-12
		c-71-4.7-139.6,6.7-207.4,25.4c-31.4,8.7-62,20-93.1,29.5c-42.8,13.1-86.4,22.1-130.7,28.8c-44.1,6.7-88.3,6.5-132.6,5.7
		c-47.2-0.9-92.3-10.6-136.2-29.4c-42.9-18.4-88.3-30.1-134.5-37.9c-38.7-6.5-77.6-10.5-116.8-9.1c-56.5,2-112.3,9.9-167.1,23.3
		c-56.7,13.9-112.9,30.2-169.6,43.9c-33,8-66.9,12.1-101,12.3c-46.4,0.3-92.8,1.7-139.1-3c-19.7-2-39.3-4.1-59-6.1
		c0-27.6,0-55.2,0-82.8c5.4-7.4,13.5-10.6,21.7-13.5c89.2-31.5,180.6-43.3,274.5-28.2c57.3,9.2,113.9,4.3,170.6-4.9
		c52.9-8.5,105.3-20.9,158.8-25.8c94.5-8.8,187.7-2.2,279.3,23.9c40.3,11.5,80.2,24.1,120.7,34.9c69.9,18.6,137.4,13.3,204.1-13.7
		c59.3-24,120.2-43,183.4-54.2c119.1-21.1,235.9-13.8,350.2,27c41.8,14.9,85.2,20.8,129.6,19c9-0.4,18.6-2,26.4,4.8
		C1919.4,789.8,1919.4,829.7,1919.4,869.5z"/>
	<path class="st4" d="M1919.4,749.9c-50.1,1.6-100.2,1.1-148-15.8c-38-13.5-76.4-25.5-116.2-31.4c-49.6-7.4-99.3-13.1-150.1-8.9
		c-50.8,4.2-101,10.6-150.3,22.9c-40,10-79.5,22.7-117.4,38.9c-71.5,30.6-143.9,35.4-219.1,15c-50.6-13.7-100.1-30.7-151.1-42.9
		c-73.1-17.5-147.2-20.8-221.5-16.7c-54.1,3-107.4,15.4-160.8,25.1c-41,7.5-82.4,13.9-124,13.3c-34.4-0.5-68.6-6.5-103-9.9
		c-29-2.9-57.9-2.7-86.9,0c-43.2,3.9-85.6,11.6-126.7,25.7c-14.9,5.1-29.7,10.4-44.5,15.5c0-33.7,0-67.5,0-101.2
		c18.8,0,37.8,2.8,56.4,2.3c72.6-1.7,145.8-1,216.4-21.1c37.7-10.7,74.1-25.9,111.3-38.1c45.5-15,91.7-27.9,140.3-25.7
		c38.7,1.7,76.6,9.5,114.1,18.9c57.6,14.4,115.2,29.2,174,38.6c54.7,8.8,108.5,1.4,161.9-10c48.6-10.4,96.9-24.3,146.9-24.8
		c34.4-0.3,68.7,5.2,102.1,15.2c42.6,12.7,86.3,19.6,131.1,17.1c29.9-1.7,59.9-4.2,88.9-11.7c70.4-18.3,141.5-28.8,214.5-25.2
		c41.9,2.1,82.4,10.6,122.3,23.7c45.3,15,90.3,32.3,139.2,31.5C1919.4,696.8,1919.4,723.4,1919.4,749.9z"/>
	<path class="st5" d="M1919.4,566c-33.8,3.8-67.2,13.3-101.4,11.8c-82.2-3.6-163.4-13.4-240.3-45.9c-69-29.1-138.2-23.9-207.2,0.5
		c-49.8,17.6-100.9,30.1-153.7,29.6c-46.7-0.5-93.4-5.8-139.8-12.5c-86.7-12.5-171.2-36.4-257.4-51.6
		c-94.2-16.6-186.5-9.1-277.8,18.6c-55.6,16.9-110.5,35.8-167.1,49.5c-52.1,12.6-104.3,9.1-156-0.8c-73.5-14-144.8-10-214.4,18.4
		c-1.4,0.6-3,0.5-4.5,0.7c0-37.8,0-75.6,0-113.4c47-8.6,94.6-7.9,142-5.8c45.9,2,91.1,10.1,136.3,18.3
		c67.5,12.2,132.9,2.3,197.7-17.1c50.3-15.1,99.2-34.6,150.8-45.7c54.7-11.8,109.5-10.1,164.5-3.4c85.1,10.4,168.3,31,252.5,46.6
		c77.4,14.3,152.8,11.4,227.6-15.2c51.4-18.3,103.8-33.3,158.4-39.7c64.6-7.5,127.3-1.9,188,21.8c32.8,12.8,65.9,24.9,98.2,39
		c64.4,27.9,128.1,23.8,192-0.9c3.8-1.5,7.7-2.6,11.5-3.9C1919.4,498.5,1919.4,532.2,1919.4,566z"/>
</g>
<path class="st6" d="M1512,1080H0l0.3-481.8c32.8-4.9,63.5-7.2,90-4.4c38.2,2.7,185.4,22.4,197.6,18.7
	c90.5-7.9,177.1-59.1,274.5-60.1c143.2,6.9,214,36.1,316,48.1c92,12,189.3-65.8,288.8-53c100.5,7.9,154.2,58.1,243.7,68
	c32.5,0,76.5-5.2,101.5-21L1512,1080z"/>
</svg>
